<svg width="63" height="63" viewBox="0 0 63 63" fill="none" xmlns="http://www.w3.org/2000/svg">
<path d="M57.3011 0H5.69886C2.5515 0 0 2.5515 0 5.69886V57.301C0 60.4485 2.5515 63 5.69886 63H57.301C60.4485 63 63 60.4485 63 57.301V5.69886C63 2.5515 60.4485 0 57.3011 0ZM19.4949 54.3984C19.4949 55.3143 18.7524 56.0568 17.8364 56.0568H10.7768C9.86082 56.0568 9.11834 55.3143 9.11834 54.3984V24.8047C9.11834 23.8887 9.86082 23.1462 10.7768 23.1462H17.8364C18.7524 23.1462 19.4949 23.8887 19.4949 24.8047V54.3984ZM14.3066 20.3566C10.6026 20.3566 7.59991 17.3539 7.59991 13.6499C7.59991 9.94592 10.6026 6.94319 14.3066 6.94319C18.0106 6.94319 21.0133 9.94592 21.0133 13.6499C21.0133 17.3539 18.0107 20.3566 14.3066 20.3566ZM56.3883 54.5319C56.3883 55.374 55.7055 56.0568 54.8634 56.0568H47.2879C46.4458 56.0568 45.7631 55.374 45.7631 54.5319V40.6508C45.7631 38.5801 46.3705 31.5767 40.3515 31.5767C35.6827 31.5767 34.7358 36.3703 34.5456 38.5215V54.5319C34.5456 55.374 33.863 56.0568 33.0207 56.0568H25.6939C24.8519 56.0568 24.1691 55.374 24.1691 54.5319V24.6711C24.1691 23.829 24.8519 23.1462 25.6939 23.1462H33.0207C33.8628 23.1462 34.5456 23.829 34.5456 24.6711V27.2529C36.2768 24.6549 38.8496 22.6497 44.3274 22.6497C56.4577 22.6497 56.3883 33.9824 56.3883 40.2092V54.5319Z" fill="#0077B7"/>
</svg>
