<svg width="62" height="62" viewBox="0 0 62 62" fill="none" xmlns="http://www.w3.org/2000/svg">
<rect width="62" height="62" rx="6" fill="#03A9F4"/>
<path d="M51.5118 18.9216C50.0053 19.5877 48.4 20.0293 46.7263 20.2436C48.4481 19.2075 49.7622 17.5792 50.38 15.6166C48.7747 16.5813 47.0023 17.2627 45.1135 17.643C43.5892 16.0071 41.4168 14.9939 39.0468 14.9939C34.4487 14.9939 30.747 18.7557 30.747 23.3675C30.747 24.031 30.8027 24.6691 30.9394 25.2765C24.0347 24.937 17.925 21.6014 13.8206 16.52C13.1041 17.7732 12.6838 19.2075 12.6838 20.7515C12.6838 23.6507 14.165 26.2208 16.3729 27.7087C15.0385 27.6831 13.7295 27.2927 12.6205 26.6776C12.6205 26.7031 12.6205 26.7363 12.6205 26.7695C12.6205 30.8376 15.4993 34.2166 19.2745 34.995C18.5985 35.1813 17.8617 35.2707 17.097 35.2707C16.5653 35.2707 16.0285 35.24 15.5247 35.1278C16.6008 38.443 19.6543 40.8803 23.2852 40.9594C20.4595 43.1874 16.8717 44.5299 12.9876 44.5299C12.3065 44.5299 11.6533 44.4992 11 44.415C14.679 46.8064 19.0391 48.1718 23.741 48.1718C39.024 48.1718 47.3796 35.411 47.3796 24.35C47.3796 23.98 47.3669 23.6227 47.3492 23.2679C48.9975 22.0888 50.3825 20.6162 51.5118 18.9216Z" fill="white"/>
</svg>
